<svg width="33" height="33" viewBox="0 0 33 33" fill="none" xmlns="http://www.w3.org/2000/svg">
<path d="M9.50878 23.7532L15.7807 21.0562L22.0527 23.7532V7.50879H9.50878V23.7532ZM8.75615 26.8264C8.33802 26.9937 7.94079 26.9569 7.56448 26.716C7.18816 26.4752 7 26.1256 7 25.6674V7.50879C7 6.81887 7.24586 6.22805 7.73758 5.73633C8.2293 5.24461 8.8197 4.99917 9.50878 5H22.0527C22.7426 5 23.3334 5.24586 23.8252 5.73758C24.3169 6.22931 24.5623 6.81971 24.5615 7.50879V25.6661C24.5615 26.126 24.3733 26.4764 23.997 26.7173C23.6207 26.9581 23.2235 26.9945 22.8053 26.8264L15.7807 23.8159L8.75615 26.8264Z" fill="#89898A"/>
</svg>
