<svg width="157" height="113" viewBox="0 0 157 113" fill="none" xmlns="http://www.w3.org/2000/svg">
<g clip-path="url(#clip0_1642_4380)">
<path d="M108.683 74.7797C107.57 74.7799 106.482 74.4507 105.557 73.8336C104.632 73.2165 103.91 72.3393 103.484 71.313C103.058 70.2866 102.946 69.1571 103.163 68.0674C103.38 66.9777 103.916 65.9767 104.703 65.1909C105.489 64.4052 106.492 63.87 107.583 63.653C108.675 63.436 109.806 63.5471 110.834 63.9721C111.862 64.397 112.741 65.1169 113.36 66.0405C113.978 66.9642 114.308 68.0502 114.309 69.1612C114.307 70.6505 113.714 72.0783 112.659 73.1315C111.605 74.1848 110.175 74.7775 108.683 74.7797ZM46.497 74.7797C45.3842 74.7799 44.2962 74.4507 43.3708 73.8336C42.4454 73.2165 41.7241 72.3393 41.298 71.313C40.872 70.2866 40.7604 69.1571 40.9773 68.0674C41.1941 66.9777 41.7298 65.9767 42.5166 65.1909C43.3033 64.4052 44.3058 63.87 45.3972 63.653C46.4886 63.436 47.6199 63.5471 48.6481 63.9721C49.6763 64.397 50.5552 65.1169 51.1737 66.0405C51.7921 66.9642 52.1223 68.0502 52.1225 69.1612C52.1211 70.6506 51.528 72.0785 50.4734 73.1318C49.4188 74.1851 47.9887 74.7778 46.497 74.7797ZM110.701 40.9449L121.944 21.5025C122.098 21.2369 122.198 20.9437 122.238 20.6396C122.279 20.3355 122.258 20.0264 122.179 19.7301C122.1 19.4337 121.963 19.1559 121.776 18.9124C121.589 18.669 121.356 18.4646 121.09 18.3111C120.824 18.1576 120.53 18.0578 120.225 18.0176C119.921 17.9774 119.611 17.9975 119.314 18.0767C119.018 18.1559 118.739 18.2928 118.496 18.4793C118.252 18.6659 118.047 18.8987 117.893 19.1642L106.507 38.8523C97.801 34.885 88.0226 32.6759 77.589 32.6759C67.1553 32.6759 57.378 34.8882 48.6715 38.8523L37.2869 19.1642C37.1333 18.8986 36.9288 18.6658 36.6851 18.479C36.4414 18.2923 36.1633 18.1553 35.8665 18.0759C35.5698 17.9965 35.2603 17.9762 34.9557 18.0162C34.6511 18.0562 34.3574 18.1557 34.0914 18.309C33.8253 18.4623 33.5921 18.6664 33.405 18.9097C33.218 19.153 33.0808 19.4307 33.0012 19.727C32.9217 20.0232 32.9014 20.3322 32.9414 20.6363C32.9815 20.9404 33.0811 21.2336 33.2347 21.4993L44.4794 40.9449C25.1717 51.4293 11.9657 70.9437 10.0339 93.9999H145.146C143.212 70.9437 130.007 51.4293 110.701 40.9449Z" fill="#C0C0C0"/>
</g>
<defs>
<clipPath id="clip0_1642_4380">
<rect width="135.111" height="76" fill="white" transform="translate(10 18)"/>
</clipPath>
</defs>
</svg>
