<svg width="157" height="113" viewBox="0 0 157 113" fill="none" xmlns="http://www.w3.org/2000/svg">
<path d="M82.3119 16C83.4879 16 84.5399 16.732 84.9358 17.828L87.7598 25.6559C88.7717 25.9079 89.6397 26.1599 90.3757 26.4239C91.1796 26.7119 92.2156 27.1479 93.4956 27.7439L100.071 24.2639C100.608 23.9795 101.223 23.8769 101.823 23.9714C102.423 24.0658 102.976 24.3524 103.399 24.7879L109.183 30.7678C109.951 31.5638 110.167 32.7278 109.735 33.7438L106.651 40.9717C107.163 41.9117 107.571 42.7157 107.883 43.3877C108.219 44.1197 108.635 45.1277 109.131 46.4276L116.319 49.5076C117.399 49.9676 118.067 51.0476 117.995 52.2036L117.467 60.5035C117.431 61.0427 117.237 61.5594 116.91 61.9896C116.583 62.4198 116.137 62.7445 115.627 62.9234L108.819 65.3434C108.623 66.2834 108.419 67.0874 108.203 67.7674C107.855 68.8176 107.457 69.8507 107.011 70.8633L110.431 78.4233C110.672 78.9544 110.737 79.5489 110.616 80.1197C110.495 80.6905 110.195 81.2076 109.759 81.5952L103.255 87.4031C102.827 87.784 102.292 88.0249 101.723 88.0935C101.154 88.1622 100.578 88.0553 100.071 87.7871L93.3676 84.2352C92.3187 84.7905 91.2367 85.2808 90.1277 85.7032L87.1998 86.7992L84.5999 93.9991C84.4072 94.5263 84.0597 94.983 83.6028 95.3093C83.146 95.6355 82.6012 95.816 82.04 95.827L74.4402 95.999C73.8641 96.0142 73.2974 95.8503 72.8182 95.5302C72.339 95.21 71.9708 94.7491 71.7643 94.2111L68.7004 86.1032C67.655 85.7459 66.62 85.3591 65.5965 84.9432C64.7594 84.5808 63.935 84.19 63.1246 83.7712L55.5249 87.0191C55.0241 87.2328 54.4721 87.2962 53.9359 87.2018C53.3997 87.1073 52.9026 86.8591 52.505 86.4872L46.8812 81.2112C46.4625 80.8201 46.1773 80.3073 46.0661 79.7452C45.9548 79.1832 46.0231 78.6004 46.2612 78.0793L49.5291 70.9593C49.0945 70.116 48.6915 69.2568 48.3211 68.3834C47.8887 67.3143 47.4886 66.2325 47.1212 65.1394L39.9614 62.9594C39.3794 62.7835 38.8718 62.4204 38.5174 61.9264C38.163 61.4324 37.9816 60.8351 38.0015 60.2275L38.2815 52.5436C38.3014 52.0422 38.458 51.5559 38.7344 51.1371C39.0107 50.7183 39.3963 50.3831 39.8494 50.1676L47.3611 46.5596C47.7091 45.2837 48.0131 44.2917 48.2811 43.5677C48.6585 42.6007 49.0775 41.6505 49.5371 40.7197L46.2812 33.8398C46.0341 33.3173 45.9591 32.73 46.0669 32.1622C46.1747 31.5944 46.4598 31.0754 46.8812 30.6798L52.497 25.3759C52.8906 25.0046 53.3832 24.755 53.9154 24.657C54.4476 24.5591 54.9968 24.617 55.4969 24.8239L63.0886 27.9599C63.9286 27.3999 64.6885 26.9479 65.3765 26.5839C66.1965 26.1479 67.2925 25.6919 68.6724 25.1999L71.3123 17.836C71.5075 17.2971 71.8642 16.8315 72.3339 16.5029C72.8035 16.1743 73.3631 15.9987 73.9362 16H82.3119ZM78.0961 44.0757C71.4283 44.0757 66.0245 49.4156 66.0245 56.0075C66.0245 62.5994 71.4283 67.9434 78.0961 67.9434C84.7599 67.9434 90.1637 62.5994 90.1637 56.0075C90.1637 49.4156 84.7639 44.0757 78.0961 44.0757Z" fill="#C0C0C0"/>
</svg>
