<svg width="20" height="17" viewBox="0 0 20 17" fill="none" xmlns="http://www.w3.org/2000/svg">
<g clip-path="url(#clip0_1923_5924)">
<path d="M8.59043 1.60073C7.71231 0.722607 6.28731 0.722607 5.40918 1.60073L1.07168 5.93823C0.193555 6.81636 0.193555 8.24136 1.07168 9.11948L5.40918 13.457C6.28731 14.3351 7.71231 14.3351 8.59043 13.457L12.9279 9.11948C13.8061 8.24136 13.8061 6.81636 12.9279 5.93823L8.59043 1.60073ZM6.2498 7.52886C6.2498 7.32995 6.32882 7.13918 6.46948 6.99853C6.61013 6.85788 6.80089 6.77886 6.99981 6.77886C7.19872 6.77886 7.38948 6.85788 7.53014 6.99853C7.67079 7.13918 7.74981 7.32995 7.74981 7.52886C7.74981 7.72777 7.67079 7.91854 7.53014 8.05919C7.38948 8.19984 7.19872 8.27886 6.99981 8.27886C6.80089 8.27886 6.61013 8.19984 6.46948 8.05919C6.32882 7.91854 6.2498 7.72777 6.2498 7.52886ZM2.9998 6.77886C3.19872 6.77886 3.38948 6.85788 3.53014 6.99853C3.67079 7.13918 3.74981 7.32995 3.74981 7.52886C3.74981 7.72777 3.67079 7.91854 3.53014 8.05919C3.38948 8.19984 3.19872 8.27886 2.9998 8.27886C2.80089 8.27886 2.61013 8.19984 2.46947 8.05919C2.32882 7.91854 2.2498 7.72777 2.2498 7.52886C2.2498 7.32995 2.32882 7.13918 2.46947 6.99853C2.61013 6.85788 2.80089 6.77886 2.9998 6.77886ZM6.99981 12.2789C6.80089 12.2789 6.61013 12.1998 6.46948 12.0592C6.32882 11.9185 6.2498 11.7278 6.2498 11.5289C6.2498 11.3299 6.32882 11.1392 6.46948 10.9985C6.61013 10.8579 6.80089 10.7789 6.99981 10.7789C7.19872 10.7789 7.38948 10.8579 7.53014 10.9985C7.67079 11.1392 7.74981 11.3299 7.74981 11.5289C7.74981 11.7278 7.67079 11.9185 7.53014 12.0592C7.38948 12.1998 7.19872 12.2789 6.99981 12.2789ZM10.9998 6.77886C11.1987 6.77886 11.3895 6.85788 11.5301 6.99853C11.6708 7.13918 11.7498 7.32995 11.7498 7.52886C11.7498 7.72777 11.6708 7.91854 11.5301 8.05919C11.3895 8.19984 11.1987 8.27886 10.9998 8.27886C10.8009 8.27886 10.6101 8.19984 10.4695 8.05919C10.3288 7.91854 10.2498 7.72777 10.2498 7.52886C10.2498 7.32995 10.3288 7.13918 10.4695 6.99853C10.6101 6.85788 10.8009 6.77886 10.9998 6.77886ZM6.99981 4.27886C6.80089 4.27886 6.61013 4.19984 6.46948 4.05919C6.32882 3.91854 6.2498 3.72777 6.2498 3.52886C6.2498 3.32995 6.32882 3.13918 6.46948 2.99853C6.61013 2.85788 6.80089 2.77886 6.99981 2.77886C7.19872 2.77886 7.38948 2.85788 7.53014 2.99853C7.67079 3.13918 7.74981 3.32995 7.74981 3.52886C7.74981 3.72777 7.67079 3.91854 7.53014 4.05919C7.38948 4.19984 7.19872 4.27886 6.99981 4.27886ZM9.99981 14.5289C9.99981 15.632 10.8967 16.5289 11.9998 16.5289H17.9998C19.1029 16.5289 19.9998 15.632 19.9998 14.5289V8.52886C19.9998 7.42573 19.1029 6.52886 17.9998 6.52886H14.4279C14.7904 7.65386 14.5248 8.93511 13.6342 9.82573L9.99981 13.4601V14.5289ZM14.9998 10.7789C15.1987 10.7789 15.3895 10.8579 15.5301 10.9985C15.6708 11.1392 15.7498 11.3299 15.7498 11.5289C15.7498 11.7278 15.6708 11.9185 15.5301 12.0592C15.3895 12.1998 15.1987 12.2789 14.9998 12.2789C14.8009 12.2789 14.6101 12.1998 14.4695 12.0592C14.3288 11.9185 14.2498 11.7278 14.2498 11.5289C14.2498 11.3299 14.3288 11.1392 14.4695 10.9985C14.6101 10.8579 14.8009 10.7789 14.9998 10.7789Z" fill="#666667"/>
</g>
<defs>
<clipPath id="clip0_1923_5924">
<rect width="20" height="16" fill="white" transform="translate(0 0.529053)"/>
</clipPath>
</defs>
</svg>
