<svg width="157" height="113" viewBox="0 0 157 113" fill="none" xmlns="http://www.w3.org/2000/svg">
<g clip-path="url(#clip0_1642_4398)">
<path d="M108.683 74.7797C107.57 74.7799 106.482 74.4507 105.557 73.8336C104.631 73.2165 103.91 72.3393 103.484 71.313C103.058 70.2866 102.946 69.1571 103.163 68.0674C103.38 66.9777 103.916 65.9767 104.703 65.1909C105.489 64.4052 106.492 63.87 107.583 63.653C108.675 63.436 109.806 63.5471 110.834 63.9721C111.862 64.397 112.741 65.1169 113.36 66.0405C113.978 66.9642 114.308 68.0502 114.308 69.1612C114.307 70.6505 113.714 72.0783 112.659 73.1315C111.604 74.1848 110.175 74.7775 108.683 74.7797ZM46.4969 74.7797C45.384 74.7799 44.2961 74.4507 43.3707 73.8336C42.4453 73.2165 41.724 72.3393 41.2979 71.313C40.8719 70.2866 40.7602 69.1571 40.9771 68.0674C41.194 66.9777 41.7297 65.9767 42.5165 65.1909C43.3032 64.4052 44.3057 63.87 45.3971 63.653C46.4885 63.436 47.6198 63.5471 48.648 63.9721C49.6762 64.397 50.5551 65.1169 51.1735 66.0405C51.792 66.9642 52.1222 68.0502 52.1224 69.1612C52.121 70.6506 51.5279 72.0785 50.4733 73.1318C49.4187 74.1851 47.9886 74.7778 46.4969 74.7797ZM110.701 40.9449L121.944 21.5025C122.098 21.2369 122.198 20.9437 122.238 20.6396C122.278 20.3355 122.258 20.0264 122.179 19.7301C122.1 19.4337 121.963 19.1559 121.776 18.9124C121.589 18.669 121.356 18.4646 121.09 18.3111C120.824 18.1576 120.53 18.0578 120.225 18.0176C119.921 17.9774 119.611 17.9975 119.314 18.0767C119.018 18.1559 118.739 18.2928 118.495 18.4793C118.252 18.6659 118.047 18.8987 117.893 19.1642L106.507 38.8523C97.8009 34.885 88.0225 32.6759 77.5888 32.6759C67.1552 32.6759 57.3779 34.8882 48.6714 38.8523L37.2867 19.1642C37.1332 18.8986 36.9287 18.6658 36.685 18.479C36.4413 18.2923 36.1631 18.1553 35.8664 18.0759C35.5697 17.9965 35.2602 17.9762 34.9556 18.0162C34.651 18.0562 34.3573 18.1557 34.0912 18.309C33.8252 18.4623 33.592 18.6664 33.4049 18.9097C33.2179 19.153 33.0807 19.4307 33.0011 19.727C32.9216 20.0232 32.9012 20.3322 32.9413 20.6363C32.9814 20.9404 33.081 21.2336 33.2346 21.4993L44.4793 40.9449C25.1716 51.4293 11.9655 70.9437 10.0338 93.9999H145.146C143.212 70.9437 130.007 51.4293 110.701 40.9449Z" fill="url(#paint0_linear_1642_4398)"/>
</g>
<defs>
<linearGradient id="paint0_linear_1642_4398" x1="10.0338" y1="17.9962" x2="73.0124" y2="133.374" gradientUnits="userSpaceOnUse">
<stop stop-color="#9E3DFF"/>
<stop offset="1" stop-color="#3840FF"/>
</linearGradient>
<clipPath id="clip0_1642_4398">
<rect width="135.111" height="76" fill="white" transform="translate(10 18)"/>
</clipPath>
</defs>
</svg>
